<svg width="544" height="400" viewBox="0 0 544 400" fill="none" xmlns="http://www.w3.org/2000/svg">
<path d="M25.6736 160.006C21.696 160.006 17.8992 159.343 14.2832 158.018C10.6672 156.692 7.71412 154.582 5.42399 151.69C3.13386 148.797 1.9888 145.121 1.9888 140.661C1.9888 139.576 2.22986 138.612 2.712 137.768C3.31466 136.804 3.85706 136.322 4.33919 136.322C5.30346 136.322 5.78559 137.768 5.78559 140.661C5.78559 144.759 7.53332 147.953 11.0288 150.243C13.801 152.051 17.5376 152.955 22.2384 152.955C26.9392 152.955 31.8207 152.111 36.8831 150.424C41.9455 148.737 46.7669 146.326 51.3471 143.192C56.7711 139.576 62.7978 134.393 69.4271 127.643C76.1769 120.773 83.1679 113.3 90.3998 105.224C84.6143 104.621 78.8287 103.958 73.0431 103.235C67.378 102.512 61.6527 102.15 55.8671 102.15C52.01 102.15 48.153 102.572 44.2959 103.416C40.4389 104.139 36.9434 105.586 33.8095 107.755C30.6757 109.925 28.3253 113.119 26.7584 117.338C26.6378 117.82 26.457 118.362 26.216 118.965C26.0954 119.568 26.0352 120.17 26.0352 120.773C26.0352 121.978 26.3365 123.063 26.9392 124.027C27.1802 124.75 27.3008 125.172 27.3008 125.293C27.3008 126.378 26.8186 126.92 25.8544 126.92C25.0106 126.92 24.3477 126.498 23.8656 125.654C22.6602 123.485 22.0576 120.713 22.0576 117.338C22.0576 110.949 23.2026 106.068 25.4928 102.693C27.9034 99.3179 31.0975 97.0278 35.0751 95.8225C39.0527 94.6172 43.3317 94.0145 47.9119 94.0145C49.961 94.0145 52.0703 94.135 54.2399 94.3761C56.53 94.4966 58.7599 94.6774 60.9295 94.9185C66.233 95.4006 71.7172 96.2444 77.3823 97.4497C83.0473 98.5345 88.7124 99.6795 94.3774 100.885C100.645 93.5324 106.792 86.1196 112.819 78.6465C118.966 71.1735 124.692 64.1223 129.995 57.4929C135.298 50.7431 139.818 44.9575 143.555 40.1362C143.675 39.7746 143.917 39.5335 144.278 39.413C144.519 39.1719 144.7 39.0514 144.821 39.0514C146.146 38.3282 147.834 37.7255 149.883 37.2434C151.932 36.6407 153.318 36.3394 154.041 36.3394C155.247 36.3394 155.849 37.0023 155.849 38.3282C155.849 38.6898 155.548 39.3527 154.945 40.317C148.919 50.5623 143.736 61.0487 139.397 71.7761C135.178 82.5036 131.441 93.5324 128.187 104.862L127.825 106.128C128.549 106.128 129.272 106.188 129.995 106.309C130.839 106.309 131.562 106.309 132.165 106.309C137.347 106.67 141.747 106.128 145.363 104.682C148.015 103.717 149.823 102.331 150.787 100.523C151.149 100.041 151.45 99.8001 151.691 99.8001C152.294 99.8001 152.715 100.162 152.957 100.885C153.198 101.488 153.137 102.09 152.776 102.693C151.45 104.983 149.099 106.67 145.725 107.755C143.796 108.599 141.566 109.141 139.035 109.382C136.624 109.624 134.093 109.684 131.441 109.563H130.357L128.187 109.382H127.102C125.294 116.012 124.029 122.882 123.305 129.994C123.185 130.596 123.125 131.199 123.125 131.802C123.125 132.284 123.125 132.826 123.125 133.429C123.125 140.299 124.993 143.734 128.729 143.734C131.14 143.734 133.973 142.65 137.227 140.48C140.602 138.31 143.977 135.659 147.352 132.525C150.847 129.391 153.981 126.317 156.753 123.304C159.526 120.17 161.575 117.699 162.901 115.891C163.142 115.65 163.503 115.53 163.985 115.53C165.191 115.53 165.552 116.193 165.07 117.518C164.829 117.88 163.805 119.326 161.997 121.858C160.189 124.268 157.718 127.221 154.584 130.717C151.45 134.092 147.774 137.467 143.555 140.842C140.18 143.493 136.805 145.181 133.43 145.904C130.176 146.748 127.705 147.17 126.017 147.17C122.642 147.17 119.93 145.663 117.881 142.65C115.953 139.516 114.989 135.538 114.989 130.717C114.989 127.221 115.35 123.605 116.073 119.869C116.797 116.132 117.64 112.396 118.605 108.659C115.109 108.298 111.553 107.936 107.937 107.574C104.321 107.092 100.705 106.61 97.0894 106.128C89.8574 114.927 82.6255 123.184 75.3935 130.898C68.282 138.491 61.5924 144.638 55.3247 149.339C50.6239 152.714 45.7423 155.306 40.6799 157.114C35.7381 159.042 30.7359 160.006 25.6736 160.006ZM119.328 105.224C121.497 96.7867 124.029 88.3494 126.921 79.9121C129.935 71.3543 132.888 63.5799 135.781 56.589L136.685 54.4194C131.502 61.6513 125.776 69.3655 119.509 77.5617C113.361 85.758 107.094 93.894 100.705 101.97C103.839 102.572 106.973 103.175 110.107 103.778C113.241 104.26 116.314 104.742 119.328 105.224ZM162.481 146.627C159.95 146.627 157.961 146.386 156.515 145.904C155.189 145.542 154.526 144.578 154.526 143.011C154.526 142.409 154.586 141.806 154.707 141.203C154.827 140.48 155.068 139.697 155.43 138.853C156.032 137.527 157.057 136.563 158.503 135.96C159.95 135.237 161.276 134.875 162.481 134.875C163.686 134.875 164.771 135.177 165.735 135.779C167.423 136.985 169.412 138.069 171.702 139.034C173.992 139.877 176.403 140.299 178.934 140.299C181.827 140.299 184.78 139.636 187.793 138.31C190.806 136.864 193.639 134.273 196.291 130.536C199.907 125.835 203.281 119.989 206.415 112.998C209.549 105.887 212.382 98.4139 214.913 90.5793C217.565 82.7446 219.915 75.1511 221.964 67.7985C224.013 60.3255 225.701 53.877 227.026 48.453C220.759 48.9351 214.672 50.0199 208.766 51.7074C202.86 53.2743 197.978 55.5644 194.121 58.5777C190.384 61.4705 188.516 65.0865 188.516 69.4257C188.516 71.8364 189.179 73.8252 190.505 75.3921C191.831 76.8385 193.337 77.9836 195.025 78.8273C196.833 79.671 198.279 80.3942 199.364 80.9969C200.208 81.479 200.63 81.9009 200.63 82.2625C200.63 82.9857 200.087 83.1062 199.003 82.6241C197.556 82.2625 195.688 81.479 193.398 80.2737C191.228 78.9478 189.239 77.2001 187.431 75.0305C185.744 72.8609 184.84 70.39 184.719 67.6177C184.719 67.3767 184.599 67.0151 184.358 66.5329C184.237 66.0508 184.177 65.6289 184.177 65.2673C183.936 60.6871 185.081 56.83 187.612 53.6962C190.264 50.5623 193.759 48.0311 198.099 46.1026C202.558 44.0535 207.44 42.6071 212.743 41.7634C218.167 40.7991 223.591 40.317 229.015 40.317L229.738 38.509C229.98 37.9063 230.642 37.4242 231.727 37.0626C232.933 36.5805 234.138 36.3394 235.343 36.3394C236.549 36.3394 237.513 36.5202 238.236 36.8818C239.08 37.2434 239.502 37.7255 239.502 38.3282C239.502 38.9308 239.2 39.7143 238.598 40.6786C242.575 41.0402 246.191 41.6428 249.446 42.4866C252.821 43.3303 255.653 44.3548 257.943 45.5602C258.787 45.9218 259.751 46.7052 260.836 47.9106C262.041 48.9954 262.644 49.8994 262.644 50.6226C262.644 51.2252 262.162 51.5266 261.198 51.5266C260.716 51.5266 260.113 51.4663 259.39 51.3458C258.666 51.2252 257.823 50.9842 256.858 50.6226C254.568 49.7788 251.555 49.1762 247.818 48.8146C244.202 48.453 240.285 48.2722 236.066 48.2722C234.258 53.8167 232.089 60.3857 229.558 67.9793C227.147 75.5729 224.375 83.4678 221.241 91.6641C218.228 99.7398 214.913 107.514 211.297 114.987C207.681 122.34 203.884 128.547 199.907 133.61C198.701 134.815 197.496 136.02 196.291 137.226C195.206 138.431 194.121 139.516 193.036 140.48C199.665 140.601 205.692 140.54 211.116 140.299C216.661 140.058 221.301 139.877 225.038 139.757H226.122C227.448 139.757 228.111 140.058 228.111 140.661C228.111 141.263 227.75 141.926 227.026 142.65C226.303 143.373 225.701 143.855 225.218 144.096C224.616 144.337 222.507 144.638 218.891 145C215.395 145.241 210.996 145.422 205.692 145.542C200.509 145.783 195.085 145.964 189.42 146.085C183.755 146.326 178.512 146.446 173.691 146.446C168.869 146.567 165.133 146.627 162.481 146.627Z" fill="#494944"/>
<path d="M177.938 323.767C177.697 323.767 176.974 323.647 175.768 323.406C174.684 323.165 173.599 322.863 172.514 322.502C171.55 322.14 171.007 321.718 170.887 321.236C170.646 318.946 171.248 315.692 172.695 311.473C174.141 307.254 176.07 302.554 178.48 297.371C181.012 292.067 183.603 286.884 186.255 281.822C185.773 281.822 185.23 281.822 184.628 281.822C184.145 281.701 183.603 281.641 183 281.641C181.554 281.4 180.831 280.737 180.831 279.652C180.831 279.05 181.494 278.748 182.82 278.748C183.784 278.748 184.628 278.808 185.351 278.929C186.074 278.929 186.857 278.929 187.701 278.929C190.112 274.349 192.342 270.251 194.391 266.635C196.44 262.898 197.886 260.066 198.73 258.137C199.453 256.811 199.935 255.726 200.176 254.883C200.417 253.918 200.538 253.195 200.538 252.713C200.538 251.99 200.417 251.387 200.176 250.905C200.417 249.459 201.261 247.53 202.708 245.119C204.274 242.709 206.203 240.298 208.493 237.887C210.783 235.477 213.254 233.488 215.906 231.921C218.558 230.234 221.029 229.39 223.319 229.39C224.042 229.39 225.127 229.631 226.573 230.113C228.14 230.475 229.647 231.077 231.093 231.921C232.539 232.765 233.443 233.97 233.805 235.537C233.926 235.778 233.986 236.14 233.986 236.622C233.986 236.983 233.805 237.164 233.443 237.164C233.202 237.164 232.841 237.104 232.359 236.983C231.997 236.742 231.696 236.622 231.455 236.622C228.803 236.622 225.91 237.887 222.776 240.419C219.763 242.829 216.629 246.084 213.375 250.182C210.12 254.28 206.866 258.86 203.612 263.923C200.478 268.864 197.464 273.867 194.572 278.929C200.598 278.688 206.986 277.965 213.736 276.759C220.486 275.434 227.176 273.686 233.805 271.516C240.434 269.347 246.582 266.695 252.247 263.561C257.912 260.427 262.673 256.871 266.53 252.894C270.748 248.434 272.858 243.854 272.858 239.153C272.858 235.658 271.532 232.403 268.88 229.39C266.228 226.377 262.07 224.086 256.405 222.52C253.03 221.555 249.173 220.832 244.834 220.35C240.615 219.868 236.035 219.627 231.093 219.627C223.379 219.627 215.424 220.29 207.228 221.616C199.152 222.941 191.558 224.99 184.447 227.763C177.335 230.414 171.369 233.789 166.548 237.887C161.726 241.986 158.833 246.867 157.869 252.532C157.508 255.425 158.05 257.715 159.496 259.403C160.943 261.09 162.691 262.416 164.74 263.38C166.909 264.224 168.597 265.007 169.802 265.731C170.646 266.454 171.068 267.056 171.068 267.539C171.068 268.382 170.284 268.684 168.717 268.443C167.03 268.081 164.92 267.237 162.389 265.911C159.979 264.586 157.809 262.778 155.88 260.487C154.072 258.077 153.168 255.305 153.168 252.171C153.168 251.689 153.168 251.206 153.168 250.724C153.289 250.242 153.409 249.76 153.53 249.278C153.53 249.157 153.47 248.796 153.349 248.193C153.349 247.47 153.349 246.867 153.349 246.385C154.072 242.649 155.88 239.153 158.773 235.899C161.787 232.524 165.161 229.571 168.898 227.04C172.755 224.388 176.311 222.278 179.565 220.712C185.23 217.939 192.04 215.77 199.996 214.203C207.951 212.515 216.267 211.672 224.946 211.672C230.249 211.672 235.493 212.033 240.675 212.756C245.979 213.48 251.102 214.625 256.043 216.192C262.914 218.482 268.217 222.037 271.954 226.859C275.811 231.559 277.559 236.501 277.197 241.684C276.835 246.626 275.088 251.086 271.954 255.063C268.94 259.041 265.023 262.537 260.202 265.55C255.501 268.443 250.258 270.974 244.472 273.143C238.807 275.192 233.082 276.88 227.296 278.206C221.752 279.411 215.846 280.315 209.578 280.918C203.431 281.52 197.886 281.882 192.944 282.003C190.052 287.186 187.46 292.067 185.17 296.647C183 301.228 181.373 304.904 180.288 307.676C179.324 310.328 178.842 312.196 178.842 313.281C178.842 314.968 179.505 315.812 180.831 315.812C182.518 315.812 184.326 314.667 186.255 312.377C187.581 310.81 188.786 309.364 189.871 308.038C191.076 306.591 192.101 305.989 192.944 306.23C193.065 306.35 193.125 306.531 193.125 306.772C193.125 307.375 192.703 308.219 191.86 309.303C191.016 310.268 190.534 310.81 190.413 310.931C189.569 312.136 188.424 313.763 186.978 315.812C185.652 317.861 184.206 319.669 182.639 321.236C181.192 322.924 179.625 323.767 177.938 323.767ZM268.353 321.598C262.929 321.598 258.229 320.332 254.251 317.801C250.273 315.27 248.285 311.413 248.285 306.23C248.285 303.458 249.128 300.083 250.816 296.105C252.021 293.333 254.251 290.139 257.505 286.523C260.76 282.907 264.557 279.411 268.896 276.036C273.235 272.541 277.634 269.708 282.094 267.539C286.554 265.249 290.592 264.103 294.208 264.103C295.534 264.103 296.739 264.284 297.824 264.646C299.873 265.369 301.259 266.514 301.982 268.081C302.826 269.648 303.248 271.275 303.248 272.963C303.248 274.53 303.007 276.036 302.524 277.483C302.042 278.929 301.44 280.195 300.716 281.279C298.547 284.534 295.413 287.427 291.315 289.958C287.337 292.489 283.239 294.478 279.021 295.924C274.922 297.371 271.547 298.214 268.896 298.455H268.534C266.967 298.455 266.184 297.973 266.184 297.009C266.184 296.406 266.666 296.105 267.63 296.105C270.523 295.864 274.139 294.538 278.478 292.127C282.938 289.596 286.855 287.005 290.23 284.353C291.676 283.148 293.364 281.46 295.292 279.291C297.342 277.121 298.366 275.012 298.366 272.963C298.366 270.793 297.342 269.708 295.292 269.708C294.208 269.708 293.063 269.949 291.857 270.431C290.772 270.914 289.869 271.275 289.145 271.516C285.65 273.204 281.793 275.855 277.574 279.471C273.355 282.967 269.498 286.944 266.003 291.404C262.628 295.743 260.278 300.143 258.952 304.603C258.59 305.567 258.349 306.531 258.229 307.495C258.108 308.339 258.048 309.183 258.048 310.027C258.048 312.919 258.952 314.968 260.76 316.174C262.688 317.379 264.978 317.982 267.63 317.982C271.608 317.982 275.706 317.138 279.925 315.451C284.143 313.643 288.241 311.352 292.219 308.58C296.196 305.808 299.812 302.855 303.067 299.721C306.442 296.467 309.274 293.333 311.564 290.319C311.926 289.837 312.348 289.596 312.83 289.596C313.312 289.476 313.614 289.536 313.734 289.777C314.216 289.898 314.457 290.259 314.457 290.862C314.457 291.344 314.337 291.826 314.096 292.308C310.721 297.009 306.623 301.589 301.801 306.049C297.1 310.509 291.857 314.245 286.072 317.259C280.407 320.151 274.501 321.598 268.353 321.598ZM323.739 320.875C320.364 320.875 317.411 320.091 314.88 318.524C310.661 315.993 308.552 311.413 308.552 304.783C308.552 302.011 309.034 298.817 309.998 295.201C310.842 292.188 312.348 288.933 314.518 285.438C316.688 281.822 319.219 278.387 322.112 275.132C325.125 271.878 328.379 269.226 331.875 267.177C335.37 265.128 338.866 264.103 342.361 264.103C343.808 264.103 345.073 264.284 346.158 264.646C347.604 265.128 348.81 266.032 349.774 267.358C350.859 268.563 351.401 270.13 351.401 272.059C351.401 274.108 350.859 275.253 349.774 275.494C348.81 275.735 348.328 275.494 348.328 274.771C348.328 274.53 348.328 274.288 348.328 274.047C348.448 273.806 348.508 273.626 348.508 273.505C348.508 272.541 348.207 271.697 347.604 270.974C347.122 270.13 346.158 269.708 344.712 269.708C342.783 269.708 340.372 270.733 337.48 272.782C334.707 274.831 331.815 277.603 328.801 281.099C325.908 284.474 323.317 288.21 321.027 292.308C318.857 296.406 317.411 300.504 316.688 304.603C316.567 305.205 316.447 305.808 316.326 306.411C316.326 306.893 316.326 307.435 316.326 308.038C316.326 310.81 316.929 313.16 318.134 315.089C319.46 316.897 321.509 317.801 324.281 317.801C327.656 317.801 330.911 316.535 334.044 314.004C337.178 311.352 339.95 308.219 342.361 304.603C344.892 300.987 346.761 297.792 347.966 295.02C348.93 292.851 349.593 290.982 349.955 289.415C350.316 287.848 350.497 286.523 350.497 285.438C350.497 284.474 350.377 283.63 350.136 282.907C350.015 282.183 349.834 281.581 349.593 281.099C349.352 280.375 349.232 279.833 349.232 279.471C349.232 278.507 349.593 277.724 350.316 277.121C351.16 276.518 352.004 276.217 352.848 276.217C353.571 276.217 354.354 276.458 355.198 276.94C356.162 277.181 357.488 277.362 359.176 277.483C360.863 277.603 362.671 277.663 364.6 277.663C366.649 277.663 368.698 277.603 370.747 277.483C372.916 277.362 374.785 277.121 376.351 276.759C376.593 276.639 376.954 276.579 377.436 276.579C378.28 276.579 378.702 276.82 378.702 277.302C378.702 277.784 378.28 278.206 377.436 278.567C373.218 280.496 369.421 281.52 366.046 281.641C362.792 281.762 359.959 281.822 357.548 281.822C357.789 284.835 357.126 288.09 355.56 291.585C353.993 294.96 352.365 297.973 350.678 300.625C348.629 303.638 346.278 306.712 343.627 309.846C340.975 312.98 338.022 315.631 334.768 317.801C331.513 319.85 327.837 320.875 323.739 320.875ZM341.942 380.719C340.495 380.719 339.772 380.117 339.772 378.911C339.772 378.429 339.953 377.766 340.314 376.922C341.761 373.789 343.81 369.088 346.462 362.82C349.113 356.673 352.066 349.561 355.321 341.486C358.455 333.531 361.649 325.334 364.903 316.897C367.796 309.424 370.568 302.132 373.22 295.02C375.992 287.909 378.282 281.52 380.09 275.855C381.898 270.07 382.802 265.61 382.802 262.476C382.802 261.512 383.465 260.97 384.791 260.849C386.117 260.608 387.383 260.487 388.588 260.487C392.566 260.487 394.554 261.813 394.554 264.465C394.554 266.635 393.349 269.467 390.938 272.963C388.769 276.458 386.9 280.074 385.334 283.811C383.767 287.427 382.2 291.163 380.633 295.02C383.526 291.163 386.238 287.366 388.769 283.63C391.3 279.893 394.253 276.699 397.628 274.047C400.28 271.998 402.871 270.371 405.402 269.166C408.054 267.84 410.887 267.177 413.9 267.177C417.034 267.177 420.168 267.96 423.301 269.527C426.435 270.974 428.243 273.324 428.725 276.579C428.846 276.94 428.906 277.362 428.906 277.844C428.906 278.206 428.906 278.567 428.906 278.929C428.906 283.148 427.641 287.306 425.109 291.404C422.699 295.382 419.806 298.938 416.431 302.071C413.056 305.205 409.922 307.736 407.03 309.665C404.619 311.111 401.666 312.678 398.17 314.366C394.795 316.053 391.179 317.5 387.322 318.705C383.586 319.91 379.97 320.513 376.474 320.513C374.305 320.513 372.497 320.272 371.05 319.79C369.483 323.406 367.675 328.046 365.626 333.711C363.577 339.497 361.649 345.162 359.841 350.706C358.997 353.117 358.696 355.046 358.937 356.492C359.178 358.059 358.877 359.988 358.033 362.278C357.31 364.688 356.526 366.978 355.682 369.148C354.839 371.438 353.874 373.608 352.79 375.657C352.549 376.139 351.825 376.802 350.62 377.646C349.294 378.489 347.848 379.213 346.281 379.815C344.593 380.418 343.147 380.719 341.942 380.719ZM372.497 316.897C376.354 316.897 380.392 315.993 384.61 314.185C388.829 312.377 392.987 309.966 397.086 306.953C401.184 303.94 404.86 300.685 408.114 297.19C411.489 293.574 414.201 290.078 416.25 286.703C418.661 282.846 419.866 279.291 419.866 276.036C419.866 272.3 418.239 270.431 414.985 270.431C414.141 270.431 413.116 270.612 411.911 270.974C410.706 271.215 409.32 271.757 407.753 272.601C401.364 275.976 396.121 279.954 392.023 284.534C387.925 288.994 384.43 293.935 381.537 299.359C378.644 304.783 375.631 310.629 372.497 316.897ZM450.628 320.694C445.565 320.694 442.01 319.428 439.96 316.897C438.032 314.366 437.068 311.232 437.068 307.495C437.068 304 437.851 299.6 439.418 294.297C441.106 288.994 443.275 283.268 445.927 277.121C448.579 270.974 451.411 264.887 454.424 258.86C457.558 252.713 460.632 247.108 463.645 242.046C466.779 236.863 469.491 232.705 471.781 229.571C474.071 226.557 476.542 223.544 479.194 220.531C481.846 217.517 484.799 214.986 488.053 212.937C491.308 210.888 494.984 209.864 499.082 209.864C501.854 209.864 504.205 210.647 506.133 212.214C508.182 213.66 509.207 215.89 509.207 218.904C509.207 220.109 508.966 221.495 508.484 223.062C508.122 224.629 507.459 226.256 506.495 227.943C499.142 240.72 490.343 252.532 480.098 263.38C469.973 274.228 459.246 284.293 447.916 293.574C447.434 295.382 446.951 297.009 446.469 298.455C446.108 299.902 445.806 301.047 445.565 301.891C445.445 302.493 445.384 303.156 445.384 303.879C445.384 304.482 445.384 305.085 445.384 305.687C445.384 308.58 445.867 311.111 446.831 313.281C447.795 315.451 449.422 316.535 451.712 316.535C453.882 316.535 456.534 315.511 459.668 313.462C462.922 311.292 466.176 308.701 469.431 305.687C472.685 302.554 475.638 299.54 478.29 296.647C480.942 293.755 482.81 291.525 483.895 289.958C484.256 289.596 484.618 289.415 484.98 289.415C485.462 289.415 485.823 289.656 486.064 290.139C486.426 290.621 486.426 291.223 486.064 291.947C484.859 293.996 482.931 296.527 480.279 299.54C477.627 302.554 474.674 305.627 471.42 308.761C468.165 311.774 465.031 314.426 462.018 316.716C458.282 319.368 454.485 320.694 450.628 320.694ZM450.447 286.342C455.027 283.208 459.788 279.17 464.73 274.228C469.672 269.166 474.493 263.682 479.194 257.775C484.015 251.869 488.355 246.023 492.212 240.238C496.189 234.452 499.383 229.209 501.794 224.508C502.517 223.182 502.999 222.037 503.24 221.073C503.602 219.988 503.783 219.024 503.783 218.18C503.783 215.89 502.819 214.745 500.89 214.745C499.203 214.745 497.093 215.649 494.562 217.457C488.053 222.52 482.027 229.028 476.482 236.983C470.937 244.818 465.996 253.075 461.656 261.753C457.317 270.431 453.581 278.628 450.447 286.342ZM497.884 321.598C492.46 321.598 487.759 320.332 483.782 317.801C479.804 315.27 477.815 311.413 477.815 306.23C477.815 303.458 478.659 300.083 480.347 296.105C481.552 293.333 483.782 290.139 487.036 286.523C490.291 282.907 494.087 279.411 498.427 276.036C502.766 272.541 507.165 269.708 511.625 267.539C516.085 265.249 520.123 264.103 523.739 264.103C525.064 264.103 526.27 264.284 527.355 264.646C529.404 265.369 530.79 266.514 531.513 268.081C532.357 269.648 532.779 271.275 532.779 272.963C532.779 274.53 532.537 276.036 532.055 277.483C531.573 278.929 530.971 280.195 530.247 281.279C528.078 284.534 524.944 287.427 520.846 289.958C516.868 292.489 512.77 294.478 508.551 295.924C504.453 297.371 501.078 298.214 498.427 298.455H498.065C496.498 298.455 495.715 297.973 495.715 297.009C495.715 296.406 496.197 296.105 497.161 296.105C500.054 295.864 503.67 294.538 508.009 292.127C512.469 289.596 516.386 287.005 519.761 284.353C521.207 283.148 522.895 281.46 524.823 279.291C526.872 277.121 527.897 275.012 527.897 272.963C527.897 270.793 526.872 269.708 524.823 269.708C523.739 269.708 522.593 269.949 521.388 270.431C520.303 270.914 519.399 271.275 518.676 271.516C515.181 273.204 511.324 275.855 507.105 279.471C502.886 282.967 499.029 286.944 495.534 291.404C492.159 295.743 489.808 300.143 488.483 304.603C488.121 305.567 487.88 306.531 487.759 307.495C487.639 308.339 487.579 309.183 487.579 310.027C487.579 312.919 488.483 314.968 490.291 316.174C492.219 317.379 494.509 317.982 497.161 317.982C501.139 317.982 505.237 317.138 509.455 315.451C513.674 313.643 517.772 311.352 521.75 308.58C525.727 305.808 529.343 302.855 532.598 299.721C535.973 296.467 538.805 293.333 541.095 290.319C541.457 289.837 541.879 289.596 542.361 289.596C542.843 289.476 543.144 289.536 543.265 289.777C543.747 289.898 543.988 290.259 543.988 290.862C543.988 291.344 543.868 291.826 543.627 292.308C540.252 297.009 536.153 301.589 531.332 306.049C526.631 310.509 521.388 314.245 515.603 317.259C509.938 320.151 504.031 321.598 497.884 321.598Z" fill="#494944"/>
<path d="M250.642 205.908L257.322 163.811H273.677C280.472 163.811 284.907 167.843 284.907 174.004C284.907 179.245 282.085 183.333 277.42 185.176C280.76 186.443 282.661 189.265 282.661 193.181C282.661 201.07 276.844 205.908 267.343 205.908H250.642ZM271.95 170.088H263.369L261.526 181.836H270.452C274.886 181.836 277.708 179.245 277.708 175.156C277.708 171.989 275.577 170.088 271.95 170.088ZM269.358 187.94H260.547L258.704 199.631H267.63C272.525 199.631 275.405 197.212 275.405 193.181C275.405 189.841 273.274 187.94 269.358 187.94ZM298.061 189.265L288.213 163.811H295.7L301.516 179.36C301.861 180.281 302.207 181.26 302.437 182.412C302.956 181.375 303.532 180.397 304.223 179.36L314.934 163.811H323.054L305.144 189.265L302.495 205.908H295.412L298.061 189.265Z" fill="#494944"/>
</svg>
