<svg width="734" height="742" viewBox="0 0 734 742" fill="none" xmlns="http://www.w3.org/2000/svg">
<path d="M344.186 4.91378C347.206 3.71385 352.386 2.14393 355.686 1.41397C358.985 0.684006 363.705 0.0540392 366.185 0.00404186C368.665 -0.0459555 373.164 0.374022 376.184 0.923994C379.204 1.48396 384.384 3.25387 387.683 4.85379C391.863 6.88368 395.963 10.1635 401.183 15.6432C405.302 19.973 411.232 27.0926 414.342 31.4724C417.461 35.8522 424.691 46.8516 430.401 55.9311C436.12 65.0006 445.9 81.4298 452.119 92.4292C458.349 103.429 467.498 119.178 472.458 127.427C477.417 135.677 484.627 147.146 488.497 152.926C492.356 158.696 499.216 168.375 503.726 174.425C508.235 180.475 515.465 189.474 519.774 194.424C524.084 199.374 531.224 207.043 535.643 211.463C540.063 215.873 549.342 224.422 556.262 230.462C563.191 236.492 572.991 244.351 578.04 247.921C583.09 251.491 591.37 256.951 596.449 260.04C601.519 263.13 615.568 271.16 627.667 277.879C639.766 284.609 654.615 293.089 660.665 296.738C666.714 300.388 676.164 306.718 681.663 310.808C687.163 314.897 695.732 322.337 700.702 327.327C707.582 334.247 711.081 338.806 715.361 346.416C718.461 351.916 722.571 360.015 724.5 364.415C726.43 368.815 728.99 375.784 730.17 379.914C731.53 384.654 732.53 391.643 732.88 398.913C733.29 407.503 733 412.562 731.75 418.912C730.69 424.262 728.43 430.751 725.66 436.411C722.411 443.051 719.211 447.621 713.461 453.82C709.172 458.45 701.392 465.69 696.162 469.909C690.933 474.139 682.833 479.989 678.164 482.909C673.494 485.839 658.865 494.818 645.666 502.868C632.467 510.917 613.568 522.647 603.669 528.936C593.769 535.226 581.17 543.716 575.671 547.805C570.171 551.905 561.402 558.945 556.172 563.454C550.942 567.974 540.353 578.134 532.634 586.033C524.914 593.933 515.225 604.452 511.105 609.402C506.975 614.352 500.656 622.231 497.066 626.901C493.466 631.571 485.357 642.82 479.057 651.9C472.748 660.979 463.558 674.459 458.639 681.868C453.709 689.278 446.079 699.107 441.68 703.717C437.28 708.327 431.201 713.717 428.181 715.697C425.161 717.676 419.081 722.026 414.682 725.356C410.282 728.686 403.312 732.946 399.183 734.825C395.063 736.705 389.433 738.875 386.684 739.645C383.804 740.455 373.944 741.335 363.435 741.725C351.996 742.145 339.477 739.415 339.687 740.045C339.137 739.565 335.537 737.965 331.687 736.505C327.838 735.046 322.668 732.376 320.188 730.576C317.598 728.686 312.719 723.076 308.689 717.366C304.839 711.907 299.04 703.377 295.79 698.417C292.55 693.458 282.021 676.349 272.391 660.399C262.772 644.45 251.533 626.231 247.423 619.901C243.313 613.572 237.214 604.572 233.864 599.903C230.514 595.233 223.495 586.233 218.265 579.904C213.035 573.574 202.436 562.075 194.727 554.335C187.007 546.595 176.198 536.456 170.698 531.806C165.199 527.146 156.649 520.187 151.7 516.337C146.75 512.477 137.301 505.478 130.701 500.768C124.102 496.068 113.982 489.078 108.203 485.229C102.423 481.389 89.3839 472.919 79.2046 466.42C69.0253 459.92 53.9563 449.58 45.7069 443.431C37.4574 437.291 28.0581 429.831 24.8283 426.842C21.5985 423.852 16.9388 418.712 14.469 415.412C11.9992 412.112 8.62941 406.713 6.97952 403.413C5.31964 400.113 3.07979 394.033 1.98986 389.914C0.539963 384.434 0 379.184 0 370.415C0 361.355 0.519964 356.455 2.12985 350.416C3.29977 346.016 5.50962 339.716 7.02952 336.416C8.8394 332.517 12.5891 327.497 17.7588 322.057C22.1285 317.457 28.858 311.358 32.7078 308.488C36.5575 305.628 42.4071 301.658 45.7069 299.668C49.0066 297.688 57.3361 293.269 64.2056 289.849C71.0751 286.429 84.1342 280.389 93.2036 276.41C102.273 272.44 114.882 266.68 121.202 263.61C127.521 260.54 137.421 255.181 143.2 251.711C148.98 248.231 159.329 241.171 166.199 236.022C173.078 230.872 182.488 223.452 187.117 219.543C191.747 215.623 199.626 208.373 204.636 203.423C209.646 198.474 217.275 190.374 221.595 185.424C225.915 180.475 233.834 170.575 239.204 163.425C244.563 156.276 251.873 145.926 255.433 140.427C258.992 134.927 264.832 125.247 268.422 118.928C272.011 112.608 278.441 100.459 282.711 91.9292C286.98 83.3997 293.68 69.2304 297.59 60.4309C301.499 51.6313 306.729 40.8519 309.199 36.4721C311.669 32.0924 316.838 25.1827 320.688 21.1229C324.538 17.0631 330.167 12.2434 333.187 10.4135C336.207 8.59359 341.167 6.11372 344.186 4.91378Z" fill="white"/>
</svg>
